<?xml version="1.0" encoding="utf-8"?>
<!-- Generator: Adobe Illustrator 19.0.0, SVG Export Plug-In . SVG Version: 6.00 Build 0)  -->
<svg version="1.1" id="layer" xmlns="http://www.w3.org/2000/svg" xmlns:xlink="http://www.w3.org/1999/xlink" x="0px" y="0px"
	 viewBox="-153 -46 652 652" style="enable-background:new -153 -46 652 652;" xml:space="preserve">
<style type="text/css">
	.st0{fill:#494C50;}
	.st1{fill:#8AC142;}
</style>
<polygon class="st0" points="170.4,206.7 96.9,260.9 133.1,345 93.7,345.1 69.1,281.7 40.1,304.5 31,345 -131.4,345.1 -126.9,319.3 
	-32.4,231.3 -102.1,231.3 -97.5,206.7 15.1,206.6 10.3,229.6 -88.9,320.5 5.7,320.4 31.6,206.6 64.1,206.7 49.7,266.3 125.3,206.6 
	"/>
<path class="st1" d="M312.9,342.3H248l9.8-43.5h46.4l-3.9,17.4h-27.8l-2,8.7l46.3,0L312.9,342.3z M324.7,290.1h-64.9l3.9-17.4h64.9
	L324.7,290.1z"/>
<g>
	<path class="st1" d="M388.2,324.9c-0.9,4-1.8,6.7-2.6,8.4c-1.4,2.9-3.5,5-6.3,6.5c-3.3,1.7-7.9,2.6-13.7,2.6l-27.8,0
		c-6,0-10.2-0.9-12.8-2.8c-2.1-1.5-3.1-3.8-3.1-6.9c0-1.1,0.1-2.4,0.4-3.7c0.1-0.6,0.4-1.9,0.9-4l5.9-26.1h18.6l-5.9,26.1h27.8
		l2-8.7h18.5L388.2,324.9z M394.1,298.8h-18.5l2-8.7h-46.3c0.9-3.9,1.7-6.7,2.6-8.3c1.4-2.9,3.5-5.1,6.2-6.5
		c3.3-1.7,7.9-2.6,13.7-2.6h27.8c6,0,10.2,0.9,12.7,2.8c2.1,1.6,3.1,3.9,3.1,6.9c0,1.1-0.1,2.4-0.4,3.8c-0.1,0.5-0.4,1.9-0.8,3.9
		L394.1,298.8z"/>
	<path class="st1" d="M459.6,324.9c-0.9,3.9-1.8,6.7-2.6,8.4c-1.4,2.9-3.5,5-6.3,6.5c-3.3,1.7-7.9,2.6-13.6,2.6h-27.8
		c-6,0-10.2-0.9-12.8-2.8c-2-1.5-3.1-3.8-3.1-6.9c0-1.1,0.1-2.4,0.4-3.7c0.1-0.6,0.4-1.9,0.9-4l5.9-26.1h18.5l-5.9,26.1H441
		l7.9-34.8h-46.4c0.9-3.9,1.7-6.7,2.6-8.3c1.4-2.9,3.5-5.1,6.3-6.5c3.3-1.7,7.9-2.6,13.7-2.6h27.8c6,0,10.2,0.9,12.7,2.8
		c2,1.6,3.1,3.9,3.1,6.9c0,1.1-0.1,2.4-0.4,3.8c-0.1,0.5-0.4,1.9-0.9,3.9L459.6,324.9z"/>
	<polygon class="st1" points="170.3,206.7 291.2,206.6 283.3,231.6 238.5,231.6 204.5,344.9 174,345 206.7,231.4 136.6,231.6 	"/>
</g>
</svg>
